<svg xmlns="http://www.w3.org/2000/svg" xmlns:xlink="http://www.w3.org/1999/xlink" xmlns:lucid="lucid" width="2065.29" height="1268.83"><g transform="translate(-149.5 643.8333333333334)" lucid:page-tab-id="0_0"><path d="M200-54a8 8 0 0 1 8-8h298.4a8 8 0 0 1 8 8v248a8 8 0 0 1-8 8H208a8 8 0 0 1-8-8z" fill="#fff"/><path d="M200-54a8 8 0 0 1 8-8h298.4a8 8 0 0 1 8 8v248a8 8 0 0 1-8 8H208a8 8 0 0 1-8-8zM200-22h314.4M243.6-22v224M365.1-22v224" stroke="#000" stroke-width="2" fill="none"/><use xlink:href="#a" transform="matrix(1,0,0,1,210,-62) translate(120.0693359375 26.5478515625)"/><use xlink:href="#b" transform="matrix(1,0,0,1,205,-19.5) translate(5.205078125 20.0478515625)"/><use xlink:href="#c" transform="matrix(1,0,0,1,248.58984375,-19.5) translate(48.072265625 20.0478515625)"/><use xlink:href="#d" transform="matrix(1,0,0,1,370.0859375,-19.5) translate(59.55859375 20.0478515625)"/><use xlink:href="#e" transform="matrix(1,0,0,1,248.58984375,12.5) translate(37.6396484375 20.0478515625)"/><use xlink:href="#f" transform="matrix(1,0,0,1,370.0859375,12.5) translate(9.21044921875 20.0478515625)"/><use xlink:href="#g" transform="matrix(1,0,0,1,248.58984375,44.5) translate(43.59423828125 20.0478515625)"/><use xlink:href="#h" transform="matrix(1,0,0,1,370.0859375,44.5) translate(5.34326171875 20.0478515625)"/><use xlink:href="#i" transform="matrix(1,0,0,1,248.58984375,76.5) translate(22.3466796875 20.0478515625)"/><use xlink:href="#j" transform="matrix(1,0,0,1,370.0859375,76.5) translate(32.6025390625 20.0478515625)"/><use xlink:href="#k" transform="matrix(1,0,0,1,205,108.5) translate(5.64013671875 20.0478515625)"/><use xlink:href="#l" transform="matrix(1,0,0,1,248.58984375,108.5) translate(8.7939453125 20.0478515625)"/><use xlink:href="#d" transform="matrix(1,0,0,1,370.0859375,108.5) translate(59.55859375 20.0478515625)"/><use xlink:href="#m" transform="matrix(1,0,0,1,248.58984375,140.5) translate(5.251953125 20.0478515625)"/><use xlink:href="#n" transform="matrix(1,0,0,1,370.0859375,140.5) translate(27.58837890625 20.0478515625)"/><use xlink:href="#k" transform="matrix(1,0,0,1,205,172.5) translate(5.64013671875 20.0478515625)"/><use xlink:href="#o" transform="matrix(1,0,0,1,248.58984375,172.5) translate(17.9521484375 20.0478515625)"/><use xlink:href="#d" transform="matrix(1,0,0,1,370.0859375,172.5) translate(59.55859375 20.0478515625)"/><path d="M745.3-22a8 8 0 0 1 8-8h286.03a8 8 0 0 1 8 8v184a8 8 0 0 1-8 8H753.3a8 8 0 0 1-8-8z" fill="#fff"/><path d="M745.3-22a8 8 0 0 1 8-8h286.03a8 8 0 0 1 8 8v184a8 8 0 0 1-8 8H753.3a8 8 0 0 1-8-8zM745.3 10h302.03M788.9 10v160M894.5 10v160" stroke="#000" stroke-width="2" fill="none"/><use xlink:href="#p" transform="matrix(1,0,0,1,755.30859375,-30) translate(72.3740234375 26.5478515625)"/><use xlink:href="#b" transform="matrix(1,0,0,1,750.30859375,12.5) translate(5.205078125 20.0478515625)"/><use xlink:href="#c" transform="matrix(1,0,0,1,793.8984375,12.5) translate(40.072265625 20.0478515625)"/><use xlink:href="#d" transform="matrix(1,0,0,1,899.486328125,12.5) translate(61.05859375 20.0478515625)"/><use xlink:href="#k" transform="matrix(1,0,0,1,750.30859375,44.5) translate(5.64013671875 20.0478515625)"/><use xlink:href="#q" transform="matrix(1,0,0,1,793.8984375,44.5) translate(19.8486328125 20.0478515625)"/><use xlink:href="#r" transform="matrix(1,0,0,1,899.486328125,44.5) translate(5.07666015625 20.0478515625)"/><use xlink:href="#k" transform="matrix(1,0,0,1,750.30859375,76.5) translate(5.64013671875 20.0478515625)"/><use xlink:href="#s" transform="matrix(1,0,0,1,793.8984375,76.5) translate(12.6416015625 20.0478515625)"/><use xlink:href="#d" transform="matrix(1,0,0,1,899.486328125,76.5) translate(61.05859375 20.0478515625)"/><use xlink:href="#t" transform="matrix(1,0,0,1,793.8984375,108.5) translate(23.57958984375 20.0478515625)"/><use xlink:href="#u" transform="matrix(1,0,0,1,899.486328125,108.5) translate(60.865234375 20.0478515625)"/><use xlink:href="#v" transform="matrix(1,0,0,1,793.8984375,140.5) translate(5.2060546875 20.0478515625)"/><use xlink:href="#n" transform="matrix(1,0,0,1,899.486328125,140.5) translate(29.08837890625 20.0478515625)"/><path d="M535.4-6.48h156.9a12 12 0 0 1 12 12v71.16a12 12 0 0 0 12 12h8.6M515.4-6.48h20m0 10v-20M744.1 88.68h-20m20-10l-20 10m20 10l-20-10" stroke="#3a414a" fill="none"/><path d="M752.74-297a8 8 0 0 1 8-8h271.16a8 8 0 0 1 8 8v152a8 8 0 0 1-8 8H760.74a8 8 0 0 1-8-8z" fill="#fff"/><path d="M752.74-297a8 8 0 0 1 8-8h271.16a8 8 0 0 1 8 8v152a8 8 0 0 1-8 8H760.74a8 8 0 0 1-8-8zM752.74-265h287.16M796.33-265v128M887.05-265v128" stroke="#000" stroke-width="2" fill="none"/><use xlink:href="#w" transform="matrix(1,0,0,1,762.744140625,-305) translate(80.23291015625 26.5478515625)"/><use xlink:href="#b" transform="matrix(1,0,0,1,757.744140625,-262.5) translate(5.205078125 20.0478515625)"/><use xlink:href="#c" transform="matrix(1,0,0,1,801.333984375,-262.5) translate(32.572265625 20.0478515625)"/><use xlink:href="#d" transform="matrix(1,0,0,1,892.05078125,-262.5) translate(61.05859375 20.0478515625)"/><use xlink:href="#k" transform="matrix(1,0,0,1,757.744140625,-230.5) translate(5.64013671875 20.0478515625)"/><use xlink:href="#q" transform="matrix(1,0,0,1,801.333984375,-230.5) translate(12.3486328125 20.0478515625)"/><use xlink:href="#r" transform="matrix(1,0,0,1,892.05078125,-230.5) translate(5.07666015625 20.0478515625)"/><use xlink:href="#k" transform="matrix(1,0,0,1,757.744140625,-198.5) translate(5.64013671875 20.0478515625)"/><use xlink:href="#s" transform="matrix(1,0,0,1,801.333984375,-198.5) translate(5.1416015625 20.0478515625)"/><use xlink:href="#d" transform="matrix(1,0,0,1,892.05078125,-198.5) translate(61.05859375 20.0478515625)"/><use xlink:href="#x" transform="matrix(1,0,0,1,801.333984375,-166.5) translate(5.185546875 20.0478515625)"/><use xlink:href="#n" transform="matrix(1,0,0,1,892.05078125,-166.5) translate(29.08837890625 20.0478515625)"/><path d="M535.4-6.48h59.36a12 12 0 0 0 12-12v-155a12 12 0 0 1 12-12.02h113.57M515.4-6.48h20m0 10v-20M751.52-185.5h-20m20-10l-20 10m20 10l-20-10" stroke="#3a414a" fill="none"/><path d="M770.12 301a8 8 0 0 1 8-8h236.4a8 8 0 0 1 8 8v88a8 8 0 0 1-8 8h-236.4a8 8 0 0 1-8-8z" fill="#fff"/><path d="M770.12 301a8 8 0 0 1 8-8h236.4a8 8 0 0 1 8 8v88a8 8 0 0 1-8 8h-236.4a8 8 0 0 1-8-8zM770.12 333h252.4M814.63 333v64M884.56 333v64" stroke="#000" stroke-width="2" fill="none"/><use xlink:href="#y" transform="matrix(1,0,0,1,780.1201171875,293) translate(77.265625 26.5478515625)"/><use xlink:href="#b" transform="matrix(1,0,0,1,775.1201171875,335.5) translate(5.705078125 20.0478515625)"/><use xlink:href="#c" transform="matrix(1,0,0,1,819.6328125,335.5) translate(22.072265625 20.0478515625)"/><use xlink:href="#d" transform="matrix(1,0,0,1,889.5634765625,335.5) translate(53.55859375 20.0478515625)"/><use xlink:href="#z" transform="matrix(1,0,0,1,775.1201171875,367.5) translate(5.24365234375 20.0478515625)"/><use xlink:href="#A" transform="matrix(1,0,0,1,819.6328125,367.5) translate(5.03466796875 20.0478515625)"/><use xlink:href="#B" transform="matrix(1,0,0,1,889.5634765625,367.5) translate(5.02099609375 20.0478515625)"/><path d="M749.12 349.03H641.85a12 12 0 0 1-12-12v-202.7a12 12 0 0 0-12-12H534.8M769.12 349.03h-20m0-10v20M515.62 122.33h20m-20 10l20-10m-20-10l20 10" stroke="#3a414a" fill="none"/><path d="M752.74-572a8 8 0 0 1 8-8h271.16a8 8 0 0 1 8 8v184a8 8 0 0 1-8 8H760.74a8 8 0 0 1-8-8z" fill="#fff"/><path d="M752.74-572a8 8 0 0 1 8-8h271.16a8 8 0 0 1 8 8v184a8 8 0 0 1-8 8H760.74a8 8 0 0 1-8-8zM752.74-540h287.16M796.33-540v160M887.05-540v160" stroke="#000" stroke-width="2" fill="none"/><use xlink:href="#C" transform="matrix(1,0,0,1,762.744140625,-580) translate(85.06689453125 26.5478515625)"/><use xlink:href="#b" transform="matrix(1,0,0,1,757.744140625,-537.5) translate(5.205078125 20.0478515625)"/><use xlink:href="#c" transform="matrix(1,0,0,1,801.333984375,-537.5) translate(32.572265625 20.0478515625)"/><use xlink:href="#d" transform="matrix(1,0,0,1,892.05078125,-537.5) translate(61.05859375 20.0478515625)"/><use xlink:href="#k" transform="matrix(1,0,0,1,757.744140625,-505.5) translate(5.64013671875 20.0478515625)"/><use xlink:href="#q" transform="matrix(1,0,0,1,801.333984375,-505.5) translate(12.3486328125 20.0478515625)"/><use xlink:href="#r" transform="matrix(1,0,0,1,892.05078125,-505.5) translate(5.07666015625 20.0478515625)"/><use xlink:href="#k" transform="matrix(1,0,0,1,757.744140625,-473.5) translate(5.64013671875 20.0478515625)"/><use xlink:href="#s" transform="matrix(1,0,0,1,801.333984375,-473.5) translate(5.1416015625 20.0478515625)"/><use xlink:href="#d" transform="matrix(1,0,0,1,892.05078125,-473.5) translate(61.05859375 20.0478515625)"/><use xlink:href="#D" transform="matrix(1,0,0,1,801.333984375,-441.5) translate(12.23876953125 20.0478515625)"/><use xlink:href="#n" transform="matrix(1,0,0,1,892.05078125,-441.5) translate(29.08837890625 20.0478515625)"/><use xlink:href="#E" transform="matrix(1,0,0,1,801.333984375,-409.5) translate(19.43701171875 20.0478515625)"/><use xlink:href="#F" transform="matrix(1,0,0,1,892.05078125,-409.5) translate(16.38818359375 20.0478515625)"/><path d="M535.4-6.48h36.27a12 12 0 0 0 12-12v-429.38a12 12 0 0 1 12-12h136.66M515.4-6.48h20m0 10v-20M751.52-459.86h-20m20-10l-20 10m20 10l-20-10M896.32-326v-8a12 12 0 0 0-12-12h-34.15a12 12 0 0 0-12 12v8.6M896.32-306v-20m10 0h-20M838.17-306.22v-20m10 20l-10-20m-10 20l10-20" stroke="#3a414a" fill="none"/><path d="M211.8-540a8 8 0 0 1 8-8h274.8a8 8 0 0 1 8 8v120a8 8 0 0 1-8 8H219.8a8 8 0 0 1-8-8z" fill="#fff"/><path d="M211.8-540a8 8 0 0 1 8-8h274.8a8 8 0 0 1 8 8v120a8 8 0 0 1-8 8H219.8a8 8 0 0 1-8-8zM211.8-508h290.8M255.4-508v96M349.74-508v96" stroke="#000" stroke-width="2" fill="none"/><use xlink:href="#G" transform="matrix(1,0,0,1,221.8125,-548) translate(49.39794921875 26.5478515625)"/><use xlink:href="#b" transform="matrix(1,0,0,1,216.8125,-505.5) translate(5.205078125 20.0478515625)"/><use xlink:href="#c" transform="matrix(1,0,0,1,260.40234375,-505.5) translate(34.572265625 20.0478515625)"/><use xlink:href="#d" transform="matrix(1,0,0,1,354.740234375,-505.5) translate(61.05859375 20.0478515625)"/><use xlink:href="#k" transform="matrix(1,0,0,1,216.8125,-473.5) translate(5.64013671875 20.0478515625)"/><use xlink:href="#q" transform="matrix(1,0,0,1,260.40234375,-473.5) translate(14.3486328125 20.0478515625)"/><use xlink:href="#r" transform="matrix(1,0,0,1,354.740234375,-473.5) translate(5.07666015625 20.0478515625)"/><use xlink:href="#H" transform="matrix(1,0,0,1,260.40234375,-441.5) translate(5.3310546875 20.0478515625)"/><use xlink:href="#B" transform="matrix(1,0,0,1,354.740234375,-441.5) translate(12.52099609375 20.0478515625)"/><path d="M1278.24 269a8 8 0 0 1 8-8h294.85a8 8 0 0 1 8 8v152a8 8 0 0 1-8 8h-294.86a8 8 0 0 1-8-8z" fill="#fff"/><path d="M1278.24 269a8 8 0 0 1 8-8h294.85a8 8 0 0 1 8 8v152a8 8 0 0 1-8 8h-294.86a8 8 0 0 1-8-8zM1278.24 301h310.85M1321.83 301v128M1436.24 301v128" stroke="#000" stroke-width="2" fill="none"/><use xlink:href="#I" transform="matrix(1,0,0,1,1288.2421875,261) translate(49.82666015625 26.5478515625)"/><use xlink:href="#b" transform="matrix(1,0,0,1,1283.2421875,303.5) translate(5.205078125 20.0478515625)"/><use xlink:href="#c" transform="matrix(1,0,0,1,1326.83203125,303.5) translate(44.572265625 20.0478515625)"/><use xlink:href="#d" transform="matrix(1,0,0,1,1441.244140625,303.5) translate(61.05859375 20.0478515625)"/><use xlink:href="#k" transform="matrix(1,0,0,1,1283.2421875,335.5) translate(5.64013671875 20.0478515625)"/><use xlink:href="#q" transform="matrix(1,0,0,1,1326.83203125,335.5) translate(24.3486328125 20.0478515625)"/><use xlink:href="#r" transform="matrix(1,0,0,1,1441.244140625,335.5) translate(5.07666015625 20.0478515625)"/><use xlink:href="#k" transform="matrix(1,0,0,1,1283.2421875,367.5) translate(5.64013671875 20.0478515625)"/><use xlink:href="#l" transform="matrix(1,0,0,1,1326.83203125,367.5) translate(5.2939453125 20.0478515625)"/><use xlink:href="#d" transform="matrix(1,0,0,1,1441.244140625,367.5) translate(61.05859375 20.0478515625)"/><use xlink:href="#J" transform="matrix(1,0,0,1,1326.83203125,399.5) translate(18.27099609375 20.0478515625)"/><use xlink:href="#u" transform="matrix(1,0,0,1,1441.244140625,399.5) translate(60.865234375 20.0478515625)"/><path d="M749.12 349.03h-84.17a12 12 0 0 0-12 12v85.47a12 12 0 0 0 12 12h1027.6a12 12 0 0 0 12-12v-53.27a12 12 0 0 0-12-12h-83.05M769.12 349.03h-20m0-10v20M1590.3 381.23h20m-20 10l20-10m-20-10l20 10" stroke="#3a414a" fill="none"/><path d="M225.18 496a8 8 0 0 1 8-8h248.04a8 8 0 0 1 8 8v120a8 8 0 0 1-8 8H233.18a8 8 0 0 1-8-8z" fill="#fff"/><path d="M225.18 496a8 8 0 0 1 8-8h248.04a8 8 0 0 1 8 8v120a8 8 0 0 1-8 8H233.18a8 8 0 0 1-8-8zM225.18 528h264.04M268.77 528v96M348.2 528v96" stroke="#000" stroke-width="2" fill="none"/><use xlink:href="#K" transform="matrix(1,0,0,1,235.1806640625,488) translate(92.3798828125 26.5478515625)"/><use xlink:href="#b" transform="matrix(1,0,0,1,230.1806640625,530.5) translate(5.205078125 20.0478515625)"/><use xlink:href="#c" transform="matrix(1,0,0,1,273.7705078125,530.5) translate(27.072265625 20.0478515625)"/><use xlink:href="#d" transform="matrix(1,0,0,1,353.2109375,530.5) translate(55.55859375 20.0478515625)"/><use xlink:href="#A" transform="matrix(1,0,0,1,273.7705078125,562.5) translate(10.03466796875 20.0478515625)"/><use xlink:href="#B" transform="matrix(1,0,0,1,353.2109375,562.5) translate(7.02099609375 20.0478515625)"/><use xlink:href="#L" transform="matrix(1,0,0,1,273.7705078125,594.5) translate(5.27978515625 20.0478515625)"/><use xlink:href="#M" transform="matrix(1,0,0,1,353.2109375,594.5) translate(5.49609375 20.0478515625)"/><path d="M204.18 543.9H172a12 12 0 0 1-12-12V-69.66a12 12 0 0 1 12-12h353.5a12 12 0 0 1 12 12v58.2c-2.77 0-5 2.23-5 5 0 2.75 2.23 5 5 5v118.8c-2.77 0-5 2.24-5 5s2.23 5 5 5v56.73a2.68 2.68 0 0 1-2.7 2.68M224.18 543.9h-20m0-10v20M515.62 186.74h20m-20 10l20-10m-20-10l20 10" stroke="#3a414a" fill="none"/><path d="M1820-313a8 8 0 0 1 8-8h328.3a8 8 0 0 1 8 8v184a8 8 0 0 1-8 8H1828a8 8 0 0 1-8-8z" fill="#fff"/><path d="M1820-313a8 8 0 0 1 8-8h328.3a8 8 0 0 1 8 8v184a8 8 0 0 1-8 8H1828a8 8 0 0 1-8-8zM1820-281h344.3M1864.5-281v160M2011.44-281v160" stroke="#000" stroke-width="2" fill="none"/><use xlink:href="#N" transform="matrix(1,0,0,1,1830,-321) translate(142.4169921875 26.5478515625)"/><use xlink:href="#b" transform="matrix(1,0,0,1,1825,-278.5) translate(5.705078125 20.0478515625)"/><use xlink:href="#c" transform="matrix(1,0,0,1,1869.5126953125,-278.5) translate(60.572265625 20.0478515625)"/><use xlink:href="#r" transform="matrix(1,0,0,1,2016.4443359375,-278.5) translate(5.07666015625 20.0478515625)"/><use xlink:href="#O" transform="matrix(1,0,0,1,1869.5126953125,-246.5) translate(24.7744140625 20.0478515625)"/><use xlink:href="#B" transform="matrix(1,0,0,1,2016.4443359375,-246.5) translate(12.52099609375 20.0478515625)"/><use xlink:href="#z" transform="matrix(1,0,0,1,1825,-214.5) translate(5.24365234375 20.0478515625)"/><use xlink:href="#P" transform="matrix(1,0,0,1,1869.5126953125,-214.5) translate(45.79345703125 20.0478515625)"/><use xlink:href="#M" transform="matrix(1,0,0,1,2016.4443359375,-214.5) translate(10.99609375 20.0478515625)"/><use xlink:href="#Q" transform="matrix(1,0,0,1,1869.5126953125,-182.5) translate(5.0341796875 20.0478515625)"/><use xlink:href="#M" transform="matrix(1,0,0,1,2016.4443359375,-182.5) translate(10.99609375 20.0478515625)"/><use xlink:href="#R" transform="matrix(1,0,0,1,1869.5126953125,-150.5) translate(50.0166015625 20.0478515625)"/><use xlink:href="#F" transform="matrix(1,0,0,1,2016.4443359375,-150.5) translate(16.38818359375 20.0478515625)"/><path d="M1799-265.26h-353.33a12 12 0 0 1-12-12v-61.24a12 12 0 0 0-12-12H711.13a12 12 0 0 0-12 12v109.53a12 12 0 0 0 12 12h21.2M1819-265.26h-20m0-10v20M751.52-216.97h-20m20-10l-20 10m20 10l-20-10M2185.3-265.26h7a12 12 0 0 1 12 12V219.5a12 12 0 0 1-12 12H1174.8a12 12 0 0 0-12 12v93.53a12 12 0 0 0 12 12h83.03M2165.3-265.26h20m0 10v-20M1277.02 349.03h-20m20-10l-20 10m20 10l-20-10" stroke="#3a414a" fill="none"/><path d="M1799-265.26h-82.45a12 12 0 0 1-12-12v-344.07a12 12 0 0 0-12-12H572.58a12 12 0 0 0-12 12v149.47a12 12 0 0 1-12 12H523M1819-265.26h-20m0-10v20M503.8-459.86h20m-20 10l20-10m-20-10l20 10" stroke="#3a414a" fill="none"/><path d="M1799-265.26h-275.62a12 12 0 0 1-12-12v-317.4a12 12 0 0 0-12-12H734.22a12 12 0 0 0-12 12v92.46a10.12 10.12 0 0 0 10.1 10.12M1819-265.26h-20m0-10v20M751.52-492.08h-20m20-10l-20 10m20 10l-20-10M1799-265.26h-431.05a12 12 0 0 0-12 12v139.93a12 12 0 0 1-12 12h-655.9a12 12 0 0 0-12 12v77.85c-2.78 0-5 2.24-5 5s2.22 5 5 5v47.76a11.64 11.64 0 0 0 11.62 11.64h11.64c0-2.76 2.25-5 5-5 2.77 0 5 2.24 5 5h15.6M1819-265.26h-20m0-10v20M744.1 57.92h-20m20-10l-20 10m20 10l-20-10" stroke="#3a414a" fill="none"/><defs><path fill="#3a414a" d="M52 0l541-1490h220L1361 0h-200l-149-416H398L254 0H52zm404-582h497c-103-290-145-390-251-756-108 377-145 460-246 756" id="S"/><path fill="#3a414a" d="M158 0v-1118h174v172h12c41-113 157-188 290-188 26 0 70 2 91 3v181c-11-2-60-10-108-10-161 0-279 109-279 260V0H158" id="T"/><path fill="#3a414a" d="M598-1118v154H368v674c0 100 37 144 132 144 23 0 62-6 92-12L629-6c-37 13-88 20-134 20-193 0-307-107-307-290v-688H20v-154h168v-266h180v266h230" id="U"/><path fill="#3a414a" d="M158 0v-1118h180V0H158zm91-1301c-68 0-125-53-125-119s57-119 125-119c69 0 126 53 126 119s-57 119-126 119" id="V"/><path fill="#3a414a" d="M613 24c-304 0-509-231-509-576 0-350 205-580 509-580 216 0 392 114 453 309l-173 49c-33-115-133-197-280-197-223 0-326 196-326 419 0 220 103 415 326 415 150 0 252-85 285-206l172 49C1010-95 832 24 613 24" id="W"/><path fill="#3a414a" d="M338-1490V0H158v-1490h180" id="X"/><path fill="#3a414a" d="M628 24c-324 0-524-230-524-574 0-343 198-582 503-582 237 0 487 146 487 559v75H286c9 234 145 362 343 362 132 0 231-58 273-172l174 48C1024-91 857 24 628 24zM287-650h624c-17-190-120-322-304-322-192 0-309 151-320 322" id="Y"/><g id="a"><use transform="matrix(0.0087890625,0,0,0.0087890625,0,0)" xlink:href="#S"/><use transform="matrix(0.0087890625,0,0,0.0087890625,12.4189453125,0)" xlink:href="#T"/><use transform="matrix(0.0087890625,0,0,0.0087890625,19.4765625,0)" xlink:href="#U"/><use transform="matrix(0.0087890625,0,0,0.0087890625,25.365234375,0)" xlink:href="#V"/><use transform="matrix(0.0087890625,0,0,0.0087890625,29.724609375,0)" xlink:href="#W"/><use transform="matrix(0.0087890625,0,0,0.0087890625,40.0078125,0)" xlink:href="#X"/><use transform="matrix(0.0087890625,0,0,0.0087890625,44.3671875,0)" xlink:href="#Y"/></g><path fill="#3a414a" d="M180 0v-1490h510c348 0 508 209 508 474 0 266-160 477-507 477H370V0H180zm190-706h312c236 0 327-133 327-310 0-176-91-307-329-307H370v617" id="Z"/><path fill="#3a414a" d="M180 0v-1490h190c0 262 1 526-3 784 217-279 467-523 702-784h249L716-845 1319 0h-225L585-716 370-489V0H180" id="aa"/><g id="b"><use transform="matrix(0.0087890625,0,0,0.0087890625,0,0)" xlink:href="#Z"/><use transform="matrix(0.0087890625,0,0,0.0087890625,11.49609375,0)" xlink:href="#aa"/></g><path fill="#3a414a" d="M370-1490V0H180v-1490h190" id="ab"/><path fill="#3a414a" d="M577 24c-279 0-473-224-473-580 0-354 195-576 474-576 218 0 287 134 324 193h14v-551h180V0H922v-173h-20C865-111 790 24 577 24zm27-161c203 0 314-172 314-421 0-247-108-413-314-413-212 0-317 181-317 413 0 235 108 421 317 421" id="ac"/><g id="c"><use transform="matrix(0.0087890625,0,0,0.0087890625,0,0)" xlink:href="#ab"/><use transform="matrix(0.0087890625,0,0,0.0087890625,4.833984375,0)" xlink:href="#ac"/></g><path fill="#3a414a" d="M338-670V0H158v-1118h173l1 207c72-158 192-221 342-221 226 0 378 139 378 422V0H872v-695c0-172-96-275-252-275-161 0-282 109-282 300" id="ad"/><g id="d"><use transform="matrix(0.0087890625,0,0,0.0087890625,0,0)" xlink:href="#V"/><use transform="matrix(0.0087890625,0,0,0.0087890625,4.359375,0)" xlink:href="#ad"/><use transform="matrix(0.0087890625,0,0,0.0087890625,14.994140625,0)" xlink:href="#U"/></g><path fill="#3a414a" d="M98-1322v-168h1126v168H757V0H567v-1322H98" id="ae"/><g id="e"><use transform="matrix(0.0087890625,0,0,0.0087890625,0,0)" xlink:href="#ae"/><use transform="matrix(0.0087890625,0,0,0.0087890625,11.619140625,0)" xlink:href="#V"/><use transform="matrix(0.0087890625,0,0,0.0087890625,15.978515625,0)" xlink:href="#U"/><use transform="matrix(0.0087890625,0,0,0.0087890625,21.8671875,0)" xlink:href="#X"/><use transform="matrix(0.0087890625,0,0,0.0087890625,26.2265625,0)" xlink:href="#Y"/></g><path fill="#3a414a" d="M481 0L54-1118h197c107 314 236 620 325 951 87-331 217-637 324-951h197L670 0H481" id="af"/><path fill="#3a414a" d="M471 26C259 26 90-98 90-318c0-256 228-303 435-329 202-27 287-16 287-108 0-139-79-219-234-219-161 0-248 86-283 164l-173-57c86-203 278-265 451-265 150 0 419 46 419 395V0H815v-152h-12C765-73 660 26 471 26zm31-159c199 0 310-134 310-271v-155c-30 35-226 55-295 64-131 17-246 59-246 186 0 116 97 176 231 176" id="ag"/><path fill="#3a414a" d="M338-670V0H158v-1490h180v566c73-149 190-208 336-208 226 0 379 139 379 422V0H872v-695c0-172-96-275-252-275-161 0-282 109-282 300" id="ah"/><path fill="#3a414a" d="M218-607c0-325 108-727 258-974h175c-155 315-250 682-250 974 0 265 78 531 250 886H476C306-10 218-315 218-607" id="ai"/><path fill="#3a414a" d="M626 20c-262 0-458-168-468-396h184c12 133 134 229 284 229 180 0 311-137 311-326 0-192-136-335-323-335-92 0-196 33-255 78l-178-22 88-738h784v167H429l-51 435h8c61-51 160-87 263-87 273 0 474 211 474 499 0 286-210 496-497 496" id="aj"/><path fill="#3a414a" d="M646 20c-332 0-524-278-524-764 0-483 194-766 524-766s524 283 524 766c0 485-191 764-524 764zm0-166c218 0 341-220 341-598 0-380-123-601-341-601s-341 222-341 601c0 378 123 598 341 598" id="ak"/><path fill="#3a414a" d="M96 279C273-86 346-350 346-607c0-292-95-659-250-974h175c150 246 258 650 258 974 0 297-91 602-258 886H96" id="al"/><g id="f"><use transform="matrix(0.0087890625,0,0,0.0087890625,0,0)" xlink:href="#ad"/><use transform="matrix(0.0087890625,0,0,0.0087890625,10.37109375,0)" xlink:href="#af"/><use transform="matrix(0.0087890625,0,0,0.0087890625,20.3994140625,0)" xlink:href="#ag"/><use transform="matrix(0.0087890625,0,0,0.0087890625,30.5068359375,0)" xlink:href="#T"/><use transform="matrix(0.0087890625,0,0,0.0087890625,36.984375,0)" xlink:href="#W"/><use transform="matrix(0.0087890625,0,0,0.0087890625,47.267578125,0)" xlink:href="#ah"/><use transform="matrix(0.0087890625,0,0,0.0087890625,57.9111328125,0)" xlink:href="#ag"/><use transform="matrix(0.0087890625,0,0,0.0087890625,68.0185546875,0)" xlink:href="#T"/><use transform="matrix(0.0087890625,0,0,0.0087890625,74.794921875,0)" xlink:href="#ai"/><use transform="matrix(0.0087890625,0,0,0.0087890625,81.3603515625,0)" xlink:href="#aj"/><use transform="matrix(0.0087890625,0,0,0.0087890625,92.302734375,0)" xlink:href="#ak"/><use transform="matrix(0.0087890625,0,0,0.0087890625,103.658203125,0)" xlink:href="#ak"/><use transform="matrix(0.0087890625,0,0,0.0087890625,115.013671875,0)" xlink:href="#al"/></g><path fill="#3a414a" d="M763 24c-353 0-583-224-583-531v-983h190v968c0 214 149 370 393 370 243 0 391-156 391-370v-968h190v983c0 307-230 531-581 531" id="am"/><g id="g"><use transform="matrix(0.0087890625,0,0,0.0087890625,0,0)" xlink:href="#am"/><use transform="matrix(0.0087890625,0,0,0.0087890625,13.39453125,0)" xlink:href="#T"/><use transform="matrix(0.0087890625,0,0,0.0087890625,20.4521484375,0)" xlink:href="#X"/></g><path fill="#3a414a" d="M653-1490V0H466v-1314h-10L96-1047v-204l324-239h233" id="an"/><g id="h"><use transform="matrix(0.0087890625,0,0,0.0087890625,0,0)" xlink:href="#ad"/><use transform="matrix(0.0087890625,0,0,0.0087890625,10.37109375,0)" xlink:href="#af"/><use transform="matrix(0.0087890625,0,0,0.0087890625,20.3994140625,0)" xlink:href="#ag"/><use transform="matrix(0.0087890625,0,0,0.0087890625,30.5068359375,0)" xlink:href="#T"/><use transform="matrix(0.0087890625,0,0,0.0087890625,36.984375,0)" xlink:href="#W"/><use transform="matrix(0.0087890625,0,0,0.0087890625,47.267578125,0)" xlink:href="#ah"/><use transform="matrix(0.0087890625,0,0,0.0087890625,57.9111328125,0)" xlink:href="#ag"/><use transform="matrix(0.0087890625,0,0,0.0087890625,68.0185546875,0)" xlink:href="#T"/><use transform="matrix(0.0087890625,0,0,0.0087890625,74.794921875,0)" xlink:href="#ai"/><use transform="matrix(0.0087890625,0,0,0.0087890625,81.3603515625,0)" xlink:href="#an"/><use transform="matrix(0.0087890625,0,0,0.0087890625,88.681640625,0)" xlink:href="#ak"/><use transform="matrix(0.0087890625,0,0,0.0087890625,100.037109375,0)" xlink:href="#ak"/><use transform="matrix(0.0087890625,0,0,0.0087890625,111.392578125,0)" xlink:href="#ak"/><use transform="matrix(0.0087890625,0,0,0.0087890625,122.748046875,0)" xlink:href="#al"/></g><path fill="#3a414a" d="M783 20c-382 0-661-292-661-764 0-473 279-766 661-766 302 0 548 182 601 489h-190c-42-204-217-313-411-313-268 0-476 208-476 590 0 381 209 588 476 588 195 0 369-110 411-313h190c-52 303-296 489-601 489" id="ao"/><path fill="#3a414a" d="M613 24c-304 0-509-231-509-576 0-350 205-580 509-580 305 0 511 230 511 580 0 345-206 576-511 576zm0-161c226 0 329-195 329-415 0-222-103-419-329-419-223 0-326 196-326 419 0 220 103 415 326 415" id="ap"/><g id="i"><use transform="matrix(0.0087890625,0,0,0.0087890625,0,0)" xlink:href="#ao"/><use transform="matrix(0.0087890625,0,0,0.0087890625,13.1484375,0)" xlink:href="#ap"/><use transform="matrix(0.0087890625,0,0,0.0087890625,23.94140625,0)" xlink:href="#ad"/><use transform="matrix(0.0087890625,0,0,0.0087890625,34.576171875,0)" xlink:href="#U"/><use transform="matrix(0.0087890625,0,0,0.0087890625,40.2890625,0)" xlink:href="#Y"/><use transform="matrix(0.0087890625,0,0,0.0087890625,50.783203125,0)" xlink:href="#ad"/><use transform="matrix(0.0087890625,0,0,0.0087890625,61.41796875,0)" xlink:href="#U"/></g><g id="j"><use transform="matrix(0.0087890625,0,0,0.0087890625,0,0)" xlink:href="#ad"/><use transform="matrix(0.0087890625,0,0,0.0087890625,10.37109375,0)" xlink:href="#af"/><use transform="matrix(0.0087890625,0,0,0.0087890625,20.3994140625,0)" xlink:href="#ag"/><use transform="matrix(0.0087890625,0,0,0.0087890625,30.5068359375,0)" xlink:href="#T"/><use transform="matrix(0.0087890625,0,0,0.0087890625,36.984375,0)" xlink:href="#W"/><use transform="matrix(0.0087890625,0,0,0.0087890625,47.267578125,0)" xlink:href="#ah"/><use transform="matrix(0.0087890625,0,0,0.0087890625,57.9111328125,0)" xlink:href="#ag"/><use transform="matrix(0.0087890625,0,0,0.0087890625,68.0185546875,0)" xlink:href="#T"/></g><path fill="#3a414a" d="M180 0v-1490h901v168H370v510h643v168H370V0H180" id="aq"/><g id="k"><use transform="matrix(0.0087890625,0,0,0.0087890625,0,0)" xlink:href="#aq"/><use transform="matrix(0.0087890625,0,0,0.0087890625,10.6259765625,0)" xlink:href="#aa"/></g><path fill="#3a414a" d="M611 442c-248 0-391-105-460-228l146-94c47 65 117 165 314 165 178 0 307-82 307-266v-224h-17C863-141 792-18 576-18c-268 0-472-195-472-546 0-346 197-568 476-568 216 0 288 133 326 193h17v-179h175V29c0 289-215 413-487 413zm-5-620c203 0 314-146 314-390 0-237-108-403-314-403-213 0-319 180-319 403 0 230 109 390 319 390" id="ar"/><path fill="#3a414a" d="M140 405l46-156c120 36 205 19 263-150l32-93L54-1118h197c107 313 237 620 324 950 87-331 219-637 326-950h196L606 167c-68 178-176 259-334 259-64 0-113-12-132-21" id="as"/><g id="l"><use transform="matrix(0.0087890625,0,0,0.0087890625,0,0)" xlink:href="#ao"/><use transform="matrix(0.0087890625,0,0,0.0087890625,13.1484375,0)" xlink:href="#ag"/><use transform="matrix(0.0087890625,0,0,0.0087890625,23.255859375,0)" xlink:href="#U"/><use transform="matrix(0.0087890625,0,0,0.0087890625,28.96875,0)" xlink:href="#Y"/><use transform="matrix(0.0087890625,0,0,0.0087890625,39.462890625,0)" xlink:href="#ar"/><use transform="matrix(0.0087890625,0,0,0.0087890625,50.501953125,0)" xlink:href="#ap"/><use transform="matrix(0.0087890625,0,0,0.0087890625,61.294921875,0)" xlink:href="#T"/><use transform="matrix(0.0087890625,0,0,0.0087890625,68.3525390625,0)" xlink:href="#as"/><use transform="matrix(0.0087890625,0,0,0.0087890625,78.556640625,0)" xlink:href="#ab"/><use transform="matrix(0.0087890625,0,0,0.0087890625,83.390625,0)" xlink:href="#ac"/></g><path fill="#3a414a" d="M537 14c-226 0-379-139-379-422v-710h180v695c0 172 97 275 253 275 160 0 281-109 281-300v-670h181V0H879v-209C806-46 684 14 537 14" id="at"/><path fill="#3a414a" d="M677 24c-213 0-288-135-325-197h-20V0H158v-1490h180v551h14c37-59 106-193 324-193 279 0 474 222 474 576 0 356-194 580-473 580zm-27-161c209 0 317-186 317-421 0-232-105-413-317-413-206 0-314 166-314 413 0 249 111 421 314 421" id="au"/><path fill="#3a414a" d="M538 24C308 24 148-78 108-271l171-41c32 123 123 178 257 178 156 0 256-77 256-169 0-77-54-128-164-154l-186-44c-203-48-300-148-300-305 0-192 176-326 414-326 230 0 351 112 402 269l-163 42c-31-80-94-158-238-158-133 0-233 69-233 162 0 83 57 129 188 160l169 40c203 48 298 149 298 302 0 196-179 339-441 339" id="av"/><g id="m"><use transform="matrix(0.0087890625,0,0,0.0087890625,0,0)" xlink:href="#Z"/><use transform="matrix(0.0087890625,0,0,0.0087890625,11.49609375,0)" xlink:href="#at"/><use transform="matrix(0.0087890625,0,0,0.0087890625,22.1396484375,0)" xlink:href="#au"/><use transform="matrix(0.0087890625,0,0,0.0087890625,33.1611328125,0)" xlink:href="#X"/><use transform="matrix(0.0087890625,0,0,0.0087890625,37.5205078125,0)" xlink:href="#V"/><use transform="matrix(0.0087890625,0,0,0.0087890625,41.8798828125,0)" xlink:href="#av"/><use transform="matrix(0.0087890625,0,0,0.0087890625,51.380859375,0)" xlink:href="#ah"/><use transform="matrix(0.0087890625,0,0,0.0087890625,62.0244140625,0)" xlink:href="#Y"/><use transform="matrix(0.0087890625,0,0,0.0087890625,72.5185546875,0)" xlink:href="#ac"/><use transform="matrix(0.0087890625,0,0,0.0087890625,83.5400390625,0)" xlink:href="#S"/><use transform="matrix(0.0087890625,0,0,0.0087890625,95.607421875,0)" xlink:href="#U"/></g><path fill="#3a414a" d="M158 0v-1118h175l1 205c55-151 181-225 313-225 147 0 245 90 285 228 53-141 190-228 352-228 194 0 352 125 352 384V0h-181v-749c0-161-105-225-225-225-151 0-243 103-243 244V0H807v-767c0-124-93-207-219-207-131 0-250 92-250 270V0H158" id="aw"/><path fill="#3a414a" d="M154 0v-137l495-537c165-179 249-281 249-418 0-156-121-253-280-253-170 0-278 110-278 278H158c0-264 200-443 465-443 266 0 455 183 455 416 0 161-73 288-336 568L416-179v12h687V0H154" id="ax"/><g id="n"><use transform="matrix(0.0087890625,0,0,0.0087890625,0,0)" xlink:href="#ac"/><use transform="matrix(0.0087890625,0,0,0.0087890625,11.021484375,0)" xlink:href="#ag"/><use transform="matrix(0.0087890625,0,0,0.0087890625,21.12890625,0)" xlink:href="#U"/><use transform="matrix(0.0087890625,0,0,0.0087890625,26.841796875,0)" xlink:href="#Y"/><use transform="matrix(0.0087890625,0,0,0.0087890625,37.3359375,0)" xlink:href="#U"/><use transform="matrix(0.0087890625,0,0,0.0087890625,43.224609375,0)" xlink:href="#V"/><use transform="matrix(0.0087890625,0,0,0.0087890625,47.583984375,0)" xlink:href="#aw"/><use transform="matrix(0.0087890625,0,0,0.0087890625,63.3515625,0)" xlink:href="#Y"/><use transform="matrix(0.0087890625,0,0,0.0087890625,73.845703125,0)" xlink:href="#ax"/></g><path fill="#3a414a" d="M657 26c-323 0-524-166-541-416h195c15 169 171 246 346 246 202 0 356-106 356-265 5-203-294-238-475-293-239-73-380-191-380-389 0-252 224-419 512-419 294 0 499 171 508 396H992c-17-145-151-228-328-228-193 0-321 102-321 242 0 156 175 211 284 241l149 41c160 44 422 134 422 412 0 244-197 432-541 432" id="ay"/><g id="o"><use transform="matrix(0.0087890625,0,0,0.0087890625,0,0)" xlink:href="#ay"/><use transform="matrix(0.0087890625,0,0,0.0087890625,11.548828125,0)" xlink:href="#ap"/><use transform="matrix(0.0087890625,0,0,0.0087890625,22.341796875,0)" xlink:href="#at"/><use transform="matrix(0.0087890625,0,0,0.0087890625,32.9853515625,0)" xlink:href="#T"/><use transform="matrix(0.0087890625,0,0,0.0087890625,39.462890625,0)" xlink:href="#W"/><use transform="matrix(0.0087890625,0,0,0.0087890625,49.74609375,0)" xlink:href="#Y"/><use transform="matrix(0.0087890625,0,0,0.0087890625,60.240234375,0)" xlink:href="#ab"/><use transform="matrix(0.0087890625,0,0,0.0087890625,65.07421875,0)" xlink:href="#ac"/></g><path fill="#3a414a" d="M158 0v-1490h180v865h22l478-493h223L593-638 1096 0H865L456-523 338-412V0H158" id="az"/><g id="p"><use transform="matrix(0.0087890625,0,0,0.0087890625,0,0)" xlink:href="#S"/><use transform="matrix(0.0087890625,0,0,0.0087890625,12.4189453125,0)" xlink:href="#T"/><use transform="matrix(0.0087890625,0,0,0.0087890625,19.4765625,0)" xlink:href="#U"/><use transform="matrix(0.0087890625,0,0,0.0087890625,25.365234375,0)" xlink:href="#V"/><use transform="matrix(0.0087890625,0,0,0.0087890625,29.724609375,0)" xlink:href="#W"/><use transform="matrix(0.0087890625,0,0,0.0087890625,40.0078125,0)" xlink:href="#X"/><use transform="matrix(0.0087890625,0,0,0.0087890625,44.3671875,0)" xlink:href="#Y"/><use transform="matrix(0.0087890625,0,0,0.0087890625,54.861328125,0)" xlink:href="#aq"/><use transform="matrix(0.0087890625,0,0,0.0087890625,64.775390625,0)" xlink:href="#Y"/><use transform="matrix(0.0087890625,0,0,0.0087890625,75.26953125,0)" xlink:href="#Y"/><use transform="matrix(0.0087890625,0,0,0.0087890625,85.763671875,0)" xlink:href="#ac"/><use transform="matrix(0.0087890625,0,0,0.0087890625,96.78515625,0)" xlink:href="#au"/><use transform="matrix(0.0087890625,0,0,0.0087890625,107.982421875,0)" xlink:href="#ag"/><use transform="matrix(0.0087890625,0,0,0.0087890625,118.08984375,0)" xlink:href="#W"/><use transform="matrix(0.0087890625,0,0,0.0087890625,128.373046875,0)" xlink:href="#az"/></g><g id="q"><use transform="matrix(0.0087890625,0,0,0.0087890625,0,0)" xlink:href="#am"/><use transform="matrix(0.0087890625,0,0,0.0087890625,13.39453125,0)" xlink:href="#av"/><use transform="matrix(0.0087890625,0,0,0.0087890625,22.8955078125,0)" xlink:href="#Y"/><use transform="matrix(0.0087890625,0,0,0.0087890625,33.3896484375,0)" xlink:href="#T"/><use transform="matrix(0.0087890625,0,0,0.0087890625,40.447265625,0)" xlink:href="#ab"/><use transform="matrix(0.0087890625,0,0,0.0087890625,45.28125,0)" xlink:href="#ac"/></g><path fill="#3a414a" d="M1096 418H916v-591h-14C865-111 790 24 577 24c-279 0-473-224-473-580 0-354 195-576 474-576 218 0 287 134 324 193h20v-179h174V418zM604-137c203 0 314-172 314-421 0-247-108-413-314-413-212 0-317 181-317 413 0 235 108 421 317 421" id="aA"/><path fill="#3a414a" d="M678-1118v154H420V0H240v-964H20v-154h220v-149c0-194 155-293 318-293 85 0 141 18 168 30l-50 154c-19-6-47-17-97-17-111 0-159 58-159 166v109h258" id="aB"/><g id="r"><use transform="matrix(0.0087890625,0,0,0.0087890625,0,0)" xlink:href="#at"/><use transform="matrix(0.0087890625,0,0,0.0087890625,10.6435546875,0)" xlink:href="#ad"/><use transform="matrix(0.0087890625,0,0,0.0087890625,21.2783203125,0)" xlink:href="#V"/><use transform="matrix(0.0087890625,0,0,0.0087890625,25.6376953125,0)" xlink:href="#aA"/><use transform="matrix(0.0087890625,0,0,0.0087890625,36.6591796875,0)" xlink:href="#at"/><use transform="matrix(0.0087890625,0,0,0.0087890625,47.302734375,0)" xlink:href="#Y"/><use transform="matrix(0.0087890625,0,0,0.0087890625,57.796875,0)" xlink:href="#V"/><use transform="matrix(0.0087890625,0,0,0.0087890625,62.15625,0)" xlink:href="#ac"/><use transform="matrix(0.0087890625,0,0,0.0087890625,73.177734375,0)" xlink:href="#Y"/><use transform="matrix(0.0087890625,0,0,0.0087890625,83.671875,0)" xlink:href="#ad"/><use transform="matrix(0.0087890625,0,0,0.0087890625,94.306640625,0)" xlink:href="#U"/><use transform="matrix(0.0087890625,0,0,0.0087890625,100.1953125,0)" xlink:href="#V"/><use transform="matrix(0.0087890625,0,0,0.0087890625,104.5546875,0)" xlink:href="#aB"/><use transform="matrix(0.0087890625,0,0,0.0087890625,111.216796875,0)" xlink:href="#V"/><use transform="matrix(0.0087890625,0,0,0.0087890625,115.576171875,0)" xlink:href="#Y"/><use transform="matrix(0.0087890625,0,0,0.0087890625,126.0703125,0)" xlink:href="#T"/></g><g id="s"><use transform="matrix(0.0087890625,0,0,0.0087890625,0,0)" xlink:href="#S"/><use transform="matrix(0.0087890625,0,0,0.0087890625,12.4189453125,0)" xlink:href="#T"/><use transform="matrix(0.0087890625,0,0,0.0087890625,19.4765625,0)" xlink:href="#U"/><use transform="matrix(0.0087890625,0,0,0.0087890625,25.365234375,0)" xlink:href="#V"/><use transform="matrix(0.0087890625,0,0,0.0087890625,29.724609375,0)" xlink:href="#W"/><use transform="matrix(0.0087890625,0,0,0.0087890625,40.0078125,0)" xlink:href="#X"/><use transform="matrix(0.0087890625,0,0,0.0087890625,44.3671875,0)" xlink:href="#Y"/><use transform="matrix(0.0087890625,0,0,0.0087890625,54.861328125,0)" xlink:href="#ab"/><use transform="matrix(0.0087890625,0,0,0.0087890625,59.6953125,0)" xlink:href="#ac"/></g><path fill="#3a414a" d="M180 0v-1490h190v1322h690V0H180" id="aC"/><g id="t"><use transform="matrix(0.0087890625,0,0,0.0087890625,0,0)" xlink:href="#ab"/><use transform="matrix(0.0087890625,0,0,0.0087890625,4.833984375,0)" xlink:href="#av"/><use transform="matrix(0.0087890625,0,0,0.0087890625,14.3349609375,0)" xlink:href="#aC"/><use transform="matrix(0.0087890625,0,0,0.0087890625,24.5126953125,0)" xlink:href="#V"/><use transform="matrix(0.0087890625,0,0,0.0087890625,28.8720703125,0)" xlink:href="#az"/><use transform="matrix(0.0087890625,0,0,0.0087890625,38.3466796875,0)" xlink:href="#Y"/></g><g id="u"><use transform="matrix(0.0087890625,0,0,0.0087890625,0,0)" xlink:href="#au"/><use transform="matrix(0.0087890625,0,0,0.0087890625,11.021484375,0)" xlink:href="#V"/><use transform="matrix(0.0087890625,0,0,0.0087890625,15.380859375,0)" xlink:href="#U"/></g><g id="v"><use transform="matrix(0.0087890625,0,0,0.0087890625,0,0)" xlink:href="#ao"/><use transform="matrix(0.0087890625,0,0,0.0087890625,13.1484375,0)" xlink:href="#T"/><use transform="matrix(0.0087890625,0,0,0.0087890625,19.6259765625,0)" xlink:href="#Y"/><use transform="matrix(0.0087890625,0,0,0.0087890625,30.2958984375,0)" xlink:href="#ag"/><use transform="matrix(0.0087890625,0,0,0.0087890625,40.4033203125,0)" xlink:href="#U"/><use transform="matrix(0.0087890625,0,0,0.0087890625,46.1162109375,0)" xlink:href="#Y"/><use transform="matrix(0.0087890625,0,0,0.0087890625,56.6103515625,0)" xlink:href="#ac"/><use transform="matrix(0.0087890625,0,0,0.0087890625,67.6318359375,0)" xlink:href="#S"/><use transform="matrix(0.0087890625,0,0,0.0087890625,79.69921875,0)" xlink:href="#U"/></g><g id="w"><use transform="matrix(0.0087890625,0,0,0.0087890625,0,0)" xlink:href="#ay"/><use transform="matrix(0.0087890625,0,0,0.0087890625,11.548828125,0)" xlink:href="#ag"/><use transform="matrix(0.0087890625,0,0,0.0087890625,21.392578125,0)" xlink:href="#af"/><use transform="matrix(0.0087890625,0,0,0.0087890625,31.1572265625,0)" xlink:href="#Y"/><use transform="matrix(0.0087890625,0,0,0.0087890625,41.6513671875,0)" xlink:href="#ac"/><use transform="matrix(0.0087890625,0,0,0.0087890625,52.6728515625,0)" xlink:href="#S"/><use transform="matrix(0.0087890625,0,0,0.0087890625,65.091796875,0)" xlink:href="#T"/><use transform="matrix(0.0087890625,0,0,0.0087890625,72.1494140625,0)" xlink:href="#U"/><use transform="matrix(0.0087890625,0,0,0.0087890625,78.0380859375,0)" xlink:href="#V"/><use transform="matrix(0.0087890625,0,0,0.0087890625,82.3974609375,0)" xlink:href="#W"/><use transform="matrix(0.0087890625,0,0,0.0087890625,92.6806640625,0)" xlink:href="#X"/><use transform="matrix(0.0087890625,0,0,0.0087890625,97.0400390625,0)" xlink:href="#Y"/></g><g id="x"><use transform="matrix(0.0087890625,0,0,0.0087890625,0,0)" xlink:href="#ay"/><use transform="matrix(0.0087890625,0,0,0.0087890625,11.548828125,0)" xlink:href="#ag"/><use transform="matrix(0.0087890625,0,0,0.0087890625,21.392578125,0)" xlink:href="#af"/><use transform="matrix(0.0087890625,0,0,0.0087890625,31.1572265625,0)" xlink:href="#Y"/><use transform="matrix(0.0087890625,0,0,0.0087890625,41.6513671875,0)" xlink:href="#ac"/><use transform="matrix(0.0087890625,0,0,0.0087890625,52.6728515625,0)" xlink:href="#S"/><use transform="matrix(0.0087890625,0,0,0.0087890625,64.740234375,0)" xlink:href="#U"/></g><g id="y"><use transform="matrix(0.0087890625,0,0,0.0087890625,0,0)" xlink:href="#ao"/><use transform="matrix(0.0087890625,0,0,0.0087890625,13.1484375,0)" xlink:href="#ag"/><use transform="matrix(0.0087890625,0,0,0.0087890625,23.255859375,0)" xlink:href="#U"/><use transform="matrix(0.0087890625,0,0,0.0087890625,28.96875,0)" xlink:href="#Y"/><use transform="matrix(0.0087890625,0,0,0.0087890625,39.462890625,0)" xlink:href="#ar"/><use transform="matrix(0.0087890625,0,0,0.0087890625,50.501953125,0)" xlink:href="#ap"/><use transform="matrix(0.0087890625,0,0,0.0087890625,61.294921875,0)" xlink:href="#T"/><use transform="matrix(0.0087890625,0,0,0.0087890625,68.3525390625,0)" xlink:href="#as"/></g><g id="z"><use transform="matrix(0.0087890625,0,0,0.0087890625,0,0)" xlink:href="#S"/><use transform="matrix(0.0087890625,0,0,0.0087890625,12.4189453125,0)" xlink:href="#aa"/></g><path fill="#3a414a" d="M180 0v-1490h224l606 953c40 63 108 177 176 312-27-437-7-821-13-1265h190V0h-226C860-448 622-778 356-1262c27 476 11 792 15 1262H180" id="aD"/><g id="A"><use transform="matrix(0.0087890625,0,0,0.0087890625,0,0)" xlink:href="#aD"/><use transform="matrix(0.0087890625,0,0,0.0087890625,13.5615234375,0)" xlink:href="#ag"/><use transform="matrix(0.0087890625,0,0,0.0087890625,23.6689453125,0)" xlink:href="#aw"/><use transform="matrix(0.0087890625,0,0,0.0087890625,39.4365234375,0)" xlink:href="#Y"/></g><g id="B"><use transform="matrix(0.0087890625,0,0,0.0087890625,0,0)" xlink:href="#ad"/><use transform="matrix(0.0087890625,0,0,0.0087890625,10.37109375,0)" xlink:href="#af"/><use transform="matrix(0.0087890625,0,0,0.0087890625,20.3994140625,0)" xlink:href="#ag"/><use transform="matrix(0.0087890625,0,0,0.0087890625,30.5068359375,0)" xlink:href="#T"/><use transform="matrix(0.0087890625,0,0,0.0087890625,36.984375,0)" xlink:href="#W"/><use transform="matrix(0.0087890625,0,0,0.0087890625,47.267578125,0)" xlink:href="#ah"/><use transform="matrix(0.0087890625,0,0,0.0087890625,57.9111328125,0)" xlink:href="#ag"/><use transform="matrix(0.0087890625,0,0,0.0087890625,68.0185546875,0)" xlink:href="#T"/><use transform="matrix(0.0087890625,0,0,0.0087890625,74.794921875,0)" xlink:href="#ai"/><use transform="matrix(0.0087890625,0,0,0.0087890625,81.3603515625,0)" xlink:href="#an"/><use transform="matrix(0.0087890625,0,0,0.0087890625,88.681640625,0)" xlink:href="#ak"/><use transform="matrix(0.0087890625,0,0,0.0087890625,100.037109375,0)" xlink:href="#ak"/><use transform="matrix(0.0087890625,0,0,0.0087890625,111.392578125,0)" xlink:href="#al"/></g><g id="C"><use transform="matrix(0.0087890625,0,0,0.0087890625,0,0)" xlink:href="#aD"/><use transform="matrix(0.0087890625,0,0,0.0087890625,13.5615234375,0)" xlink:href="#ap"/><use transform="matrix(0.0087890625,0,0,0.0087890625,24.3544921875,0)" xlink:href="#U"/><use transform="matrix(0.0087890625,0,0,0.0087890625,30.2431640625,0)" xlink:href="#V"/><use transform="matrix(0.0087890625,0,0,0.0087890625,34.6025390625,0)" xlink:href="#aB"/><use transform="matrix(0.0087890625,0,0,0.0087890625,41.2646484375,0)" xlink:href="#V"/><use transform="matrix(0.0087890625,0,0,0.0087890625,45.6240234375,0)" xlink:href="#W"/><use transform="matrix(0.0087890625,0,0,0.0087890625,56.0830078125,0)" xlink:href="#ag"/><use transform="matrix(0.0087890625,0,0,0.0087890625,66.1904296875,0)" xlink:href="#U"/><use transform="matrix(0.0087890625,0,0,0.0087890625,72.0791015625,0)" xlink:href="#V"/><use transform="matrix(0.0087890625,0,0,0.0087890625,76.4384765625,0)" xlink:href="#ap"/><use transform="matrix(0.0087890625,0,0,0.0087890625,87.2314453125,0)" xlink:href="#ad"/></g><g id="D"><use transform="matrix(0.0087890625,0,0,0.0087890625,0,0)" xlink:href="#ay"/><use transform="matrix(0.0087890625,0,0,0.0087890625,11.548828125,0)" xlink:href="#Y"/><use transform="matrix(0.0087890625,0,0,0.0087890625,22.04296875,0)" xlink:href="#ad"/><use transform="matrix(0.0087890625,0,0,0.0087890625,32.677734375,0)" xlink:href="#U"/><use transform="matrix(0.0087890625,0,0,0.0087890625,38.56640625,0)" xlink:href="#S"/><use transform="matrix(0.0087890625,0,0,0.0087890625,50.6337890625,0)" xlink:href="#U"/></g><path fill="#3a414a" d="M158 418v-1536h174v179h20c37-59 106-193 324-193 279 0 474 222 474 576 0 356-194 580-473 580-213 0-288-135-325-197h-14v591H158zm492-555c209 0 317-186 317-421 0-232-105-413-317-413-206 0-314 166-314 413 0 249 111 421 314 421" id="aE"/><g id="E"><use transform="matrix(0.0087890625,0,0,0.0087890625,0,0)" xlink:href="#ae"/><use transform="matrix(0.0087890625,0,0,0.0087890625,10.494140625,0)" xlink:href="#as"/><use transform="matrix(0.0087890625,0,0,0.0087890625,20.6103515625,0)" xlink:href="#aE"/><use transform="matrix(0.0087890625,0,0,0.0087890625,31.6318359375,0)" xlink:href="#Y"/></g><g id="F"><use transform="matrix(0.0087890625,0,0,0.0087890625,0,0)" xlink:href="#ad"/><use transform="matrix(0.0087890625,0,0,0.0087890625,10.37109375,0)" xlink:href="#af"/><use transform="matrix(0.0087890625,0,0,0.0087890625,20.3994140625,0)" xlink:href="#ag"/><use transform="matrix(0.0087890625,0,0,0.0087890625,30.5068359375,0)" xlink:href="#T"/><use transform="matrix(0.0087890625,0,0,0.0087890625,36.984375,0)" xlink:href="#W"/><use transform="matrix(0.0087890625,0,0,0.0087890625,47.267578125,0)" xlink:href="#ah"/><use transform="matrix(0.0087890625,0,0,0.0087890625,57.9111328125,0)" xlink:href="#ag"/><use transform="matrix(0.0087890625,0,0,0.0087890625,68.0185546875,0)" xlink:href="#T"/><use transform="matrix(0.0087890625,0,0,0.0087890625,74.794921875,0)" xlink:href="#ai"/><use transform="matrix(0.0087890625,0,0,0.0087890625,81.3603515625,0)" xlink:href="#aj"/><use transform="matrix(0.0087890625,0,0,0.0087890625,92.302734375,0)" xlink:href="#ak"/><use transform="matrix(0.0087890625,0,0,0.0087890625,103.658203125,0)" xlink:href="#al"/></g><path fill="#3a414a" d="M409 0L70-1118h191c89 329 165 560 243 925 75-353 154-601 240-925h192c85 325 161 564 235 922 77-354 157-598 244-922h191L1267 0h-179c-86-307-176-590-250-913C763-588 675-308 588 0H409" id="aF"/><g id="G"><use transform="matrix(0.0087890625,0,0,0.0087890625,0,0)" xlink:href="#aD"/><use transform="matrix(0.0087890625,0,0,0.0087890625,13.5615234375,0)" xlink:href="#ap"/><use transform="matrix(0.0087890625,0,0,0.0087890625,24.3544921875,0)" xlink:href="#U"/><use transform="matrix(0.0087890625,0,0,0.0087890625,30.2431640625,0)" xlink:href="#V"/><use transform="matrix(0.0087890625,0,0,0.0087890625,34.6025390625,0)" xlink:href="#aB"/><use transform="matrix(0.0087890625,0,0,0.0087890625,41.2646484375,0)" xlink:href="#V"/><use transform="matrix(0.0087890625,0,0,0.0087890625,45.6240234375,0)" xlink:href="#W"/><use transform="matrix(0.0087890625,0,0,0.0087890625,56.0830078125,0)" xlink:href="#ag"/><use transform="matrix(0.0087890625,0,0,0.0087890625,66.1904296875,0)" xlink:href="#U"/><use transform="matrix(0.0087890625,0,0,0.0087890625,72.0791015625,0)" xlink:href="#V"/><use transform="matrix(0.0087890625,0,0,0.0087890625,76.4384765625,0)" xlink:href="#ap"/><use transform="matrix(0.0087890625,0,0,0.0087890625,87.2314453125,0)" xlink:href="#ad"/><use transform="matrix(0.0087890625,0,0,0.0087890625,97.8662109375,0)" xlink:href="#aa"/><use transform="matrix(0.0087890625,0,0,0.0087890625,109.248046875,0)" xlink:href="#Y"/><use transform="matrix(0.0087890625,0,0,0.0087890625,119.390625,0)" xlink:href="#as"/><use transform="matrix(0.0087890625,0,0,0.0087890625,129.5068359375,0)" xlink:href="#aF"/><use transform="matrix(0.0087890625,0,0,0.0087890625,143.912109375,0)" xlink:href="#ap"/><use transform="matrix(0.0087890625,0,0,0.0087890625,154.705078125,0)" xlink:href="#T"/><use transform="matrix(0.0087890625,0,0,0.0087890625,161.1826171875,0)" xlink:href="#ac"/></g><g id="H"><use transform="matrix(0.0087890625,0,0,0.0087890625,0,0)" xlink:href="#aa"/><use transform="matrix(0.0087890625,0,0,0.0087890625,11.3818359375,0)" xlink:href="#Y"/><use transform="matrix(0.0087890625,0,0,0.0087890625,21.5244140625,0)" xlink:href="#as"/><use transform="matrix(0.0087890625,0,0,0.0087890625,31.640625,0)" xlink:href="#aF"/><use transform="matrix(0.0087890625,0,0,0.0087890625,46.0458984375,0)" xlink:href="#ap"/><use transform="matrix(0.0087890625,0,0,0.0087890625,56.8388671875,0)" xlink:href="#T"/><use transform="matrix(0.0087890625,0,0,0.0087890625,63.31640625,0)" xlink:href="#ac"/></g><g id="I"><use transform="matrix(0.0087890625,0,0,0.0087890625,0,0)" xlink:href="#aD"/><use transform="matrix(0.0087890625,0,0,0.0087890625,13.5615234375,0)" xlink:href="#ap"/><use transform="matrix(0.0087890625,0,0,0.0087890625,24.3544921875,0)" xlink:href="#U"/><use transform="matrix(0.0087890625,0,0,0.0087890625,30.2431640625,0)" xlink:href="#V"/><use transform="matrix(0.0087890625,0,0,0.0087890625,34.6025390625,0)" xlink:href="#aB"/><use transform="matrix(0.0087890625,0,0,0.0087890625,41.2646484375,0)" xlink:href="#V"/><use transform="matrix(0.0087890625,0,0,0.0087890625,45.6240234375,0)" xlink:href="#W"/><use transform="matrix(0.0087890625,0,0,0.0087890625,56.0830078125,0)" xlink:href="#ag"/><use transform="matrix(0.0087890625,0,0,0.0087890625,66.1904296875,0)" xlink:href="#U"/><use transform="matrix(0.0087890625,0,0,0.0087890625,72.0791015625,0)" xlink:href="#V"/><use transform="matrix(0.0087890625,0,0,0.0087890625,76.4384765625,0)" xlink:href="#ap"/><use transform="matrix(0.0087890625,0,0,0.0087890625,87.2314453125,0)" xlink:href="#ad"/><use transform="matrix(0.0087890625,0,0,0.0087890625,97.8662109375,0)" xlink:href="#Z"/><use transform="matrix(0.0087890625,0,0,0.0087890625,109.3623046875,0)" xlink:href="#T"/><use transform="matrix(0.0087890625,0,0,0.0087890625,115.83984375,0)" xlink:href="#Y"/><use transform="matrix(0.0087890625,0,0,0.0087890625,126.333984375,0)" xlink:href="#aB"/><use transform="matrix(0.0087890625,0,0,0.0087890625,132.46875,0)" xlink:href="#Y"/><use transform="matrix(0.0087890625,0,0,0.0087890625,142.962890625,0)" xlink:href="#T"/><use transform="matrix(0.0087890625,0,0,0.0087890625,149.4404296875,0)" xlink:href="#Y"/><use transform="matrix(0.0087890625,0,0,0.0087890625,159.9345703125,0)" xlink:href="#ad"/><use transform="matrix(0.0087890625,0,0,0.0087890625,170.5693359375,0)" xlink:href="#W"/><use transform="matrix(0.0087890625,0,0,0.0087890625,180.8525390625,0)" xlink:href="#Y"/></g><path fill="#3a414a" d="M180 0v-1490h908v168H370v486h669v168H370v500h727V0H180" id="aG"/><g id="J"><use transform="matrix(0.0087890625,0,0,0.0087890625,0,0)" xlink:href="#aG"/><use transform="matrix(0.0087890625,0,0,0.0087890625,10.8193359375,0)" xlink:href="#ad"/><use transform="matrix(0.0087890625,0,0,0.0087890625,21.4541015625,0)" xlink:href="#ag"/><use transform="matrix(0.0087890625,0,0,0.0087890625,31.5615234375,0)" xlink:href="#au"/><use transform="matrix(0.0087890625,0,0,0.0087890625,42.5830078125,0)" xlink:href="#X"/><use transform="matrix(0.0087890625,0,0,0.0087890625,46.9423828125,0)" xlink:href="#Y"/><use transform="matrix(0.0087890625,0,0,0.0087890625,57.4365234375,0)" xlink:href="#ac"/></g><g id="K"><use transform="matrix(0.0087890625,0,0,0.0087890625,0,0)" xlink:href="#ay"/><use transform="matrix(0.0087890625,0,0,0.0087890625,11.548828125,0)" xlink:href="#ap"/><use transform="matrix(0.0087890625,0,0,0.0087890625,22.341796875,0)" xlink:href="#at"/><use transform="matrix(0.0087890625,0,0,0.0087890625,32.9853515625,0)" xlink:href="#T"/><use transform="matrix(0.0087890625,0,0,0.0087890625,39.462890625,0)" xlink:href="#W"/><use transform="matrix(0.0087890625,0,0,0.0087890625,49.74609375,0)" xlink:href="#Y"/></g><g id="L"><use transform="matrix(0.0087890625,0,0,0.0087890625,0,0)" xlink:href="#S"/><use transform="matrix(0.0087890625,0,0,0.0087890625,12.4189453125,0)" xlink:href="#aE"/><use transform="matrix(0.0087890625,0,0,0.0087890625,23.4404296875,0)" xlink:href="#V"/><use transform="matrix(0.0087890625,0,0,0.0087890625,27.7998046875,0)" xlink:href="#aa"/><use transform="matrix(0.0087890625,0,0,0.0087890625,39.181640625,0)" xlink:href="#Y"/><use transform="matrix(0.0087890625,0,0,0.0087890625,49.32421875,0)" xlink:href="#as"/></g><path fill="#3a414a" d="M646 20c-249 0-524-159-524-708 0-524 209-822 547-822 250 0 431 161 467 395H950c-33-129-126-227-281-227-229 0-367 208-367 566h12c80-124 212-198 367-198 255 0 467 205 467 493 0 278-198 501-502 501zm0-167c179 0 318-148 318-334 0-182-133-328-313-328-181 0-322 156-322 330 0 176 134 332 317 332" id="aH"/><g id="M"><use transform="matrix(0.0087890625,0,0,0.0087890625,0,0)" xlink:href="#ad"/><use transform="matrix(0.0087890625,0,0,0.0087890625,10.37109375,0)" xlink:href="#af"/><use transform="matrix(0.0087890625,0,0,0.0087890625,20.3994140625,0)" xlink:href="#ag"/><use transform="matrix(0.0087890625,0,0,0.0087890625,30.5068359375,0)" xlink:href="#T"/><use transform="matrix(0.0087890625,0,0,0.0087890625,36.984375,0)" xlink:href="#W"/><use transform="matrix(0.0087890625,0,0,0.0087890625,47.267578125,0)" xlink:href="#ah"/><use transform="matrix(0.0087890625,0,0,0.0087890625,57.9111328125,0)" xlink:href="#ag"/><use transform="matrix(0.0087890625,0,0,0.0087890625,68.0185546875,0)" xlink:href="#T"/><use transform="matrix(0.0087890625,0,0,0.0087890625,74.794921875,0)" xlink:href="#ai"/><use transform="matrix(0.0087890625,0,0,0.0087890625,81.3603515625,0)" xlink:href="#ax"/><use transform="matrix(0.0087890625,0,0,0.0087890625,92.337890625,0)" xlink:href="#aj"/><use transform="matrix(0.0087890625,0,0,0.0087890625,103.2802734375,0)" xlink:href="#aH"/><use transform="matrix(0.0087890625,0,0,0.0087890625,114.4423828125,0)" xlink:href="#al"/></g><g id="N"><use transform="matrix(0.0087890625,0,0,0.0087890625,0,0)" xlink:href="#am"/><use transform="matrix(0.0087890625,0,0,0.0087890625,13.39453125,0)" xlink:href="#av"/><use transform="matrix(0.0087890625,0,0,0.0087890625,22.8955078125,0)" xlink:href="#Y"/><use transform="matrix(0.0087890625,0,0,0.0087890625,33.3896484375,0)" xlink:href="#T"/></g><g id="O"><use transform="matrix(0.0087890625,0,0,0.0087890625,0,0)" xlink:href="#am"/><use transform="matrix(0.0087890625,0,0,0.0087890625,13.39453125,0)" xlink:href="#av"/><use transform="matrix(0.0087890625,0,0,0.0087890625,22.8955078125,0)" xlink:href="#Y"/><use transform="matrix(0.0087890625,0,0,0.0087890625,33.3896484375,0)" xlink:href="#T"/><use transform="matrix(0.0087890625,0,0,0.0087890625,40.447265625,0)" xlink:href="#ad"/><use transform="matrix(0.0087890625,0,0,0.0087890625,51.08203125,0)" xlink:href="#ag"/><use transform="matrix(0.0087890625,0,0,0.0087890625,61.189453125,0)" xlink:href="#aw"/><use transform="matrix(0.0087890625,0,0,0.0087890625,76.95703125,0)" xlink:href="#Y"/></g><g id="P"><use transform="matrix(0.0087890625,0,0,0.0087890625,0,0)" xlink:href="#aG"/><use transform="matrix(0.0087890625,0,0,0.0087890625,10.8193359375,0)" xlink:href="#aw"/><use transform="matrix(0.0087890625,0,0,0.0087890625,26.5869140625,0)" xlink:href="#ag"/><use transform="matrix(0.0087890625,0,0,0.0087890625,36.6943359375,0)" xlink:href="#V"/><use transform="matrix(0.0087890625,0,0,0.0087890625,41.0537109375,0)" xlink:href="#X"/></g><path fill="#3a414a" d="M180 0v-1490h190v644h782v-644h190V0h-190v-678H370V0H180" id="aI"/><g id="Q"><use transform="matrix(0.0087890625,0,0,0.0087890625,0,0)" xlink:href="#Z"/><use transform="matrix(0.0087890625,0,0,0.0087890625,11.49609375,0)" xlink:href="#ag"/><use transform="matrix(0.0087890625,0,0,0.0087890625,21.603515625,0)" xlink:href="#av"/><use transform="matrix(0.0087890625,0,0,0.0087890625,31.1044921875,0)" xlink:href="#av"/><use transform="matrix(0.0087890625,0,0,0.0087890625,40.60546875,0)" xlink:href="#aF"/><use transform="matrix(0.0087890625,0,0,0.0087890625,55.0107421875,0)" xlink:href="#ap"/><use transform="matrix(0.0087890625,0,0,0.0087890625,65.8037109375,0)" xlink:href="#T"/><use transform="matrix(0.0087890625,0,0,0.0087890625,72.28125,0)" xlink:href="#ac"/><use transform="matrix(0.0087890625,0,0,0.0087890625,83.302734375,0)" xlink:href="#aI"/><use transform="matrix(0.0087890625,0,0,0.0087890625,96.6796875,0)" xlink:href="#ag"/><use transform="matrix(0.0087890625,0,0,0.0087890625,106.787109375,0)" xlink:href="#av"/><use transform="matrix(0.0087890625,0,0,0.0087890625,116.2880859375,0)" xlink:href="#ah"/></g><path fill="#3a414a" d="M180 0v-1490h510c348 0 508 194 508 460 0 198-88 351-276 417L1256 0h-220L726-579c-117 2-238 0-356 1V0H180zm190-747h312c235 0 327-108 327-283 0-177-92-293-329-293H370v576" id="aJ"/><g id="R"><use transform="matrix(0.0087890625,0,0,0.0087890625,0,0)" xlink:href="#aJ"/><use transform="matrix(0.0087890625,0,0,0.0087890625,11.3203125,0)" xlink:href="#ap"/><use transform="matrix(0.0087890625,0,0,0.0087890625,22.11328125,0)" xlink:href="#X"/><use transform="matrix(0.0087890625,0,0,0.0087890625,26.47265625,0)" xlink:href="#Y"/></g></defs></g></svg>